<?xml version="1.0" encoding="UTF-8"?>
<svg width="381px" height="151px" viewBox="0 0 381 151" version="1.1" xmlns="http://www.w3.org/2000/svg" xmlns:xlink="http://www.w3.org/1999/xlink">
    <title>GRAPHICDEVELOPMENTINTERFACE</title>
    <g id="Page-1" stroke="none" stroke-width="1" fill="none" fill-rule="evenodd">
        <g id="Artboard" transform="translate(-972.000000, -63.000000)" fill="#FFFFFF" fill-rule="nonzero">
            <path d="M986.381818,97.7143213 C989.302598,97.7143213 991.921776,96.920631 994.239352,95.3332503 C996.556928,93.7458697 998.207804,91.6346535 999.19198,88.9996016 C999.795184,87.412221 1000.09679,85.6026071 1000.09679,83.5707598 L1000.09679,83.5707598 L1000.09679,80.4277462 L985.572254,80.4277462 L985.572254,95.9047074 C983.318173,95.7459693 981.286326,95.0157742 979.476712,93.7141221 C977.667098,92.41247 976.317825,90.7298465 975.428892,88.6662517 C974.793939,87.2058615 974.476463,85.3486262 974.476463,83.0945457 L974.476463,83.0945457 L974.476463,76.8085183 C974.476463,74.6496807 975.016173,72.657518 976.095591,70.8320303 C977.17501,69.0065425 978.627464,67.5620262 980.452951,66.4984811 C982.278439,65.4349361 984.254728,64.9031636 986.381818,64.9031636 C990.032793,64.9031636 992.921826,66.01433 995.048916,68.2366629 C995.906102,69.1573437 996.612486,70.1891411 997.168069,71.3320552 C997.723653,72.4749692 998.017318,73.6337571 998.049066,74.8084187 L998.049066,74.8084187 L999.763437,74.8084187 C999.763437,73.4432714 999.453897,72.0939979 998.834819,70.7605981 C998.215741,69.4271984 997.414113,68.2207891 996.429937,67.1413703 C995.223528,65.8397182 993.763138,64.8476053 992.048767,64.1650316 C990.334396,63.4824579 988.445413,63.1411711 986.381818,63.1411711 C983.905504,63.1411711 981.619676,63.7523126 979.524334,64.9745957 C977.428991,66.1968788 975.770178,67.8556916 974.547895,69.951034 C973.325612,72.0463764 972.714471,74.3322046 972.714471,76.8085183 L972.714471,76.8085183 L972.714471,83.0945457 C972.714471,85.5391118 973.095442,87.6503281 973.857385,89.4281944 C974.905056,91.9362558 976.563869,93.9442923 978.833823,95.4523039 C981.103777,96.9603155 983.619776,97.7143213 986.381818,97.7143213 Z M987.286625,95.9047074 L987.286625,82.1421173 L998.334794,82.1421173 L998.334794,83.5707598 C998.334794,85.443869 998.049066,87.1264925 997.477609,88.6186303 C996.620423,90.7457203 995.279086,92.4521545 993.453599,93.7379328 C991.628111,95.0237111 989.572453,95.7459693 987.286625,95.9047074 L987.286625,95.9047074 Z M1035.57474,97 L1027.14575,85.2375095 C1029.46333,84.6025573 1031.38406,83.308842 1032.90794,81.3563639 C1034.43183,79.4038857 1035.19377,77.1894897 1035.19377,74.7131759 C1035.19377,72.7130763 1034.71756,70.8875886 1033.76513,69.2367127 C1032.8127,67.5858369 1031.4793,66.2841847 1029.76493,65.3317564 C1028.01881,64.3475804 1025.76473,63.8554924 1023.00269,63.8554924 L1023.00269,63.8554924 L1010.09728,63.8554924 L1010.09728,97 L1035.57474,97 Z M1026.05046,83.7136241 L1013.09743,65.6174849 L1023.05031,65.6174849 C1025.30439,65.6174849 1027.12988,65.9667086 1028.52677,66.6651561 C1030.08241,67.4270988 1031.28882,68.5223914 1032.146,69.951034 C1033.00319,71.3796766 1033.43178,72.9670572 1033.43178,74.7131759 C1033.43178,76.9037612 1032.73333,78.8403656 1031.33644,80.522989 C1029.93954,82.2056125 1028.17755,83.2691575 1026.05046,83.7136241 L1026.05046,83.7136241 Z M1024.09798,83.8564884 L1011.85928,83.8564884 L1011.85928,66.7603989 L1024.09798,83.8564884 Z M1032.24124,95.2380075 L1011.85928,95.2380075 L1011.85928,85.6184809 L1023.81225,85.6184809 L1025.28852,85.5708594 L1032.24124,95.2380075 Z M1072.71945,97 L1057.09963,63.1411711 L1041.4798,97 L1072.71945,97 Z M1069.95741,95.2380075 L1044.24184,95.2380075 L1057.09963,67.331856 L1069.95741,95.2380075 Z M1090.00603,97 L1090.00603,86.9518806 L1095.19676,86.9518806 C1097.57783,86.9518806 1099.5938,86.5232878 1101.24468,85.6661023 C1103.18128,84.6819263 1104.71311,83.2691575 1105.84015,81.427796 C1106.96719,79.5864345 1107.53071,77.570461 1107.53071,75.3798758 C1107.53071,73.1892905 1106.95925,71.181254 1105.81634,69.3557663 C1104.67342,67.5302785 1103.13366,66.1254467 1101.19706,65.1412707 C1099.51444,64.2840851 1097.51434,63.8554924 1095.19676,63.8554924 L1095.19676,63.8554924 L1081.33893,63.8554924 L1081.33893,97 L1090.00603,97 Z M1116.57878,97 L1116.57878,74.9989044 C1120.54723,74.9989044 1124.22202,75.9830804 1127.60314,77.9514324 C1130.98426,79.9197844 1133.65899,82.5945208 1135.62735,85.9756415 C1137.5957,89.3567623 1138.57987,93.0315484 1138.57987,97 L1138.57987,97 L1140.34187,97 L1140.34187,63.8554924 L1138.57987,63.8554924 L1138.57987,88.0471732 C1137.40521,85.1581405 1135.72259,82.5945208 1133.532,80.3563141 C1131.34142,78.1181074 1128.78573,76.3719887 1125.86495,75.117958 C1122.94417,73.8639273 1119.84878,73.2369119 1116.57878,73.2369119 L1116.57878,73.2369119 L1116.57878,63.8554924 L1114.81678,63.8554924 L1114.81678,97 L1116.57878,97 Z M1173.53399,97 L1173.53399,88.6186303 L1163.67636,88.6186303 L1163.67636,72.2368621 L1173.53399,72.2368621 L1173.53399,63.8554924 L1152.10436,63.8554924 L1152.10436,72.2368621 L1161.96199,72.2368621 L1161.96199,88.6186303 L1152.10436,88.6186303 L1152.10436,97 L1173.53399,97 Z M1198.20189,97.7143213 C1202.42432,97.7143213 1205.74195,96.5475965 1208.15477,94.214147 C1210.56758,91.8806975 1211.75812,88.6345041 1211.72637,84.4755668 L1211.72637,84.4755668 L1203.20214,84.4755668 C1203.20214,87.904309 1201.53539,89.6186801 1198.20189,89.6186801 C1196.7415,89.6186801 1195.51128,89.1504028 1194.51123,88.2138482 C1193.51118,87.2772936 1193.01115,85.9677046 1193.01115,84.2850811 L1193.01115,84.2850811 L1193.01115,76.5227898 C1193.01115,74.8401664 1193.48737,73.5385142 1194.4398,72.6178335 C1195.39223,71.6971527 1196.59864,71.2368123 1198.05903,71.2368123 C1199.67815,71.2368123 1200.90837,71.6812789 1201.74969,72.5702121 C1202.591,73.4591452 1203.02753,74.7131759 1203.05927,76.3323042 L1203.05927,76.3323042 L1211.63113,76.3323042 C1211.59938,72.1416193 1210.38504,68.8954259 1207.98809,66.593724 C1205.59115,64.2920221 1202.28146,63.1411711 1198.05903,63.1411711 C1195.48747,63.1411711 1193.16196,63.720565 1191.08249,64.8793529 C1189.00302,66.0381407 1187.36802,67.6652059 1186.17748,69.7605483 C1184.98695,71.8558908 1184.39168,74.2528355 1184.39168,76.9513826 L1184.39168,76.9513826 L1184.39168,83.9041098 C1184.39168,86.6344045 1185.01076,89.047223 1186.24891,91.1425655 C1187.48707,93.2379079 1189.16176,94.8570361 1191.27297,95.9999502 C1193.38419,97.1428643 1195.69383,97.7143213 1198.20189,97.7143213 Z M987.048518,155 C989.461336,155 991.691606,154.396795 993.739327,153.190386 C995.787048,151.983977 997.414113,150.356912 998.620523,148.309191 C999.826932,146.26147 1000.43014,144.0312 1000.43014,141.618381 L1000.43014,141.618381 L1000.43014,135.237111 C1000.43014,132.824293 999.826932,130.594023 998.620523,128.546302 C997.414113,126.498581 995.787048,124.871516 993.739327,123.665106 C991.691606,122.458697 989.461336,121.855492 987.048518,121.855492 L987.048518,121.855492 L974.71457,121.855492 L974.71457,155 L987.048518,155 Z M1034.09848,155 L1034.09848,146.61863 L1018.62152,146.61863 L1018.62152,142.380324 L1031.4793,142.380324 L1031.4793,134.427547 L1018.62152,134.427547 L1018.62152,130.236862 L1034.09848,130.236862 L1034.09848,121.855492 L1009.95442,121.855492 L1009.95442,155 L1034.09848,155 Z M1057.09963,155.6667 L1072.71945,121.807871 L1041.4798,121.807871 L1057.09963,155.6667 Z M1057.09963,151.476015 L1044.24184,123.569863 L1070.00503,123.569863 L1057.09963,151.476015 Z M1104.57818,155 L1104.57818,146.61863 L1089.10122,146.61863 L1089.10122,142.380324 L1101.959,142.380324 L1101.959,134.427547 L1089.10122,134.427547 L1089.10122,130.236862 L1104.57818,130.236862 L1104.57818,121.855492 L1080.43412,121.855492 L1080.43412,155 L1104.57818,155 Z M1142.05624,155 L1142.05624,146.571009 L1118.57888,146.571009 L1118.57888,121.855492 L1116.81688,121.855492 L1116.81688,155 L1142.05624,155 Z M1162.81918,155.904807 C1165.32724,155.904807 1167.63688,155.285729 1169.74809,154.047572 C1171.85931,152.809415 1173.53399,151.126791 1174.77215,148.999701 C1176.01031,146.872611 1176.62939,144.570909 1176.62939,142.094595 L1176.62939,142.094595 L1176.62939,134.760897 C1176.62939,132.284583 1176.01031,129.982881 1174.77215,127.855791 C1173.53399,125.728701 1171.85931,124.046078 1169.74809,122.807921 C1167.63688,121.569764 1165.32724,120.950685 1162.81918,120.950685 C1160.31111,120.950685 1158.00148,121.569764 1155.89026,122.807921 C1153.77904,124.046078 1152.10436,125.728701 1150.8662,127.855791 C1149.62804,129.982881 1149.00896,132.284583 1149.00896,134.760897 L1149.00896,134.760897 L1149.00896,142.094595 C1149.00896,144.570909 1149.62804,146.872611 1150.8662,148.999701 C1152.10436,151.126791 1153.77904,152.809415 1155.89026,154.047572 C1158.00148,155.285729 1160.31111,155.904807 1162.81918,155.904807 Z M1162.81918,147.61868 C1161.29529,147.61868 1160.05713,147.078971 1159.1047,145.999552 C1158.15228,144.920133 1157.67606,143.618481 1157.67606,142.094595 L1157.67606,142.094595 L1157.67606,134.713276 C1157.67606,133.157642 1158.15228,131.85599 1159.1047,130.808319 C1160.05713,129.760648 1161.29529,129.236812 1162.81918,129.236812 C1164.31131,129.236812 1165.5336,129.760648 1166.48602,130.808319 C1167.43845,131.85599 1167.91467,133.157642 1167.91467,134.713276 L1167.91467,134.713276 L1167.91467,142.094595 C1167.91467,143.618481 1167.43845,144.920133 1166.48602,145.999552 C1165.5336,147.078971 1164.31131,147.61868 1162.81918,147.61868 Z M1195.72558,155 L1195.72558,144.951881 L1200.91631,144.951881 C1203.29738,144.951881 1205.31335,144.523288 1206.96423,143.666102 C1208.90084,142.681926 1210.43266,141.269158 1211.5597,139.427796 C1212.68674,137.586434 1213.25026,135.570461 1213.25026,133.379876 C1213.25026,131.18929 1212.6788,129.181254 1211.53589,127.355766 C1210.39297,125.530279 1208.85321,124.125447 1206.91661,123.141271 C1205.23399,122.284085 1203.23389,121.855492 1200.91631,121.855492 L1200.91631,121.855492 L1187.05848,121.855492 L1187.05848,155 L1195.72558,155 Z M1246.68049,154.952379 L1246.68049,121.807871 L1244.9185,121.807871 L1233.39412,142.285081 L1221.82211,121.807871 L1219.91726,121.807871 L1219.91726,154.952379 L1246.68049,154.952379 Z M1244.9185,153.238007 L1221.67925,153.238007 L1221.67925,125.093749 L1232.53693,144.237559 L1234.20368,144.237559 L1244.9185,125.379477 L1244.9185,153.238007 Z M1280.77743,155 L1280.77743,146.61863 L1265.30047,146.61863 L1265.30047,142.380324 L1278.15825,142.380324 L1278.15825,134.427547 L1265.30047,134.427547 L1265.30047,130.236862 L1280.77743,130.236862 L1280.77743,121.855492 L1256.63337,121.855492 L1256.63337,155 L1280.77743,155 Z M1317.63641,154.952379 L1317.63641,121.807871 L1315.87442,121.807871 L1315.87442,144.332802 L1292.73041,121.807871 L1290.87317,121.807871 L1290.87317,154.952379 L1317.63641,154.952379 Z M1339.87561,155 L1339.87561,130.236862 L1352.40004,130.236862 L1352.40004,121.855492 L1325.63681,121.855492 L1325.63681,130.236862 L1338.16124,130.236862 L1338.16124,155 L1339.87561,155 Z M997.334744,213 L997.334744,204.61863 L987.477111,204.61863 L987.477111,188.236862 L997.334744,188.236862 L997.334744,179.855492 L975.905106,179.855492 L975.905106,188.236862 L985.762739,188.236862 L985.762739,204.61863 L975.905106,204.61863 L975.905106,213 L997.334744,213 Z M1035.71761,212.952379 L1035.71761,179.807871 L1033.95562,179.807871 L1033.95562,202.332802 L1010.81161,179.807871 L1008.95437,179.807871 L1008.95437,212.952379 L1035.71761,212.952379 Z M1057.95681,213 L1057.95681,188.236862 L1070.48124,188.236862 L1070.48124,179.855492 L1043.71801,179.855492 L1043.71801,188.236862 L1056.24244,188.236862 L1056.24244,213 L1057.95681,213 Z M1104.57818,213 L1104.57818,204.61863 L1089.10122,204.61863 L1089.10122,200.380324 L1101.959,200.380324 L1101.959,192.427547 L1089.10122,192.427547 L1089.10122,188.236862 L1104.57818,188.236862 L1104.57818,179.855492 L1080.43412,179.855492 L1080.43412,213 L1104.57818,213 Z M1141.29429,213 L1132.8653,201.23751 C1135.18288,200.602557 1137.10361,199.308842 1138.62749,197.356364 C1140.15138,195.403886 1140.91332,193.18949 1140.91332,190.713176 C1140.91332,188.713076 1140.43711,186.887589 1139.48468,185.236713 C1138.53225,183.585837 1137.19885,182.284185 1135.48448,181.331756 C1133.73836,180.34758 1131.48428,179.855492 1128.72224,179.855492 L1128.72224,179.855492 L1115.81683,179.855492 L1115.81683,213 L1141.29429,213 Z M1131.77001,199.713624 L1118.81698,181.617485 L1128.76986,181.617485 C1131.02394,181.617485 1132.84943,181.966709 1134.24632,182.665156 C1135.80196,183.427099 1137.00837,184.522391 1137.86555,185.951034 C1138.72274,187.379677 1139.15133,188.967057 1139.15133,190.713176 C1139.15133,192.903761 1138.45288,194.840366 1137.05599,196.522989 C1135.65909,198.205612 1133.8971,199.269158 1131.77001,199.713624 L1131.77001,199.713624 Z M1129.81753,199.856488 L1117.57883,199.856488 L1117.57883,182.760399 L1129.81753,199.856488 Z M1137.96079,211.238007 L1117.57883,211.238007 L1117.57883,201.618481 L1129.5318,201.618481 L1131.00807,201.570859 L1137.96079,211.238007 Z M1153.15203,213 L1153.15203,200.618431 L1171.43865,200.618431 L1171.43865,192.237061 L1153.15203,192.237061 L1153.15203,181.617485 L1175.96269,181.617485 L1175.96269,179.855492 L1151.39003,179.855492 L1151.39003,213 L1153.15203,213 Z M1213.67885,213 L1198.05903,179.141171 L1182.4392,213 L1213.67885,213 Z M1210.91681,211.238007 L1185.20124,211.238007 L1198.05903,183.331856 L1210.91681,211.238007 Z M1233.44174,213.714321 C1237.66417,213.714321 1240.9818,212.547597 1243.39462,210.214147 C1245.80743,207.880697 1246.99797,204.634504 1246.96622,200.475567 L1246.96622,200.475567 L1238.44199,200.475567 C1238.44199,203.904309 1236.77524,205.61868 1233.44174,205.61868 C1231.98135,205.61868 1230.75113,205.150403 1229.75108,204.213848 C1228.75103,203.277294 1228.25101,201.967705 1228.25101,200.285081 L1228.25101,200.285081 L1228.25101,192.52279 C1228.25101,190.840166 1228.72722,189.538514 1229.67965,188.617833 C1230.63208,187.697153 1231.83849,187.236812 1233.29888,187.236812 C1234.918,187.236812 1236.14822,187.681279 1236.98954,188.570212 C1237.83085,189.459145 1238.26738,190.713176 1238.29912,192.332304 L1238.29912,192.332304 L1246.87098,192.332304 C1246.83923,188.141619 1245.62489,184.895426 1243.22794,182.593724 C1240.831,180.292022 1237.52131,179.141171 1233.29888,179.141171 C1230.72732,179.141171 1228.40181,179.720565 1226.32234,180.879353 C1224.24287,182.038141 1222.60787,183.665206 1221.41733,185.760548 C1220.2268,187.855891 1219.63153,190.252836 1219.63153,192.951383 L1219.63153,192.951383 L1219.63153,199.90411 C1219.63153,202.634404 1220.25061,205.047223 1221.48876,207.142565 C1222.72692,209.237908 1224.40161,210.857036 1226.51282,211.99995 C1228.62404,213.142864 1230.93368,213.714321 1233.44174,213.714321 Z M1280.77743,213 L1280.77743,204.61863 L1265.30047,204.61863 L1265.30047,200.380324 L1278.15825,200.380324 L1278.15825,192.427547 L1265.30047,192.427547 L1265.30047,188.236862 L1280.77743,188.236862 L1280.77743,179.855492 L1256.63337,179.855492 L1256.63337,213 L1280.77743,213 Z" id="GRAPHICDEVELOPMENTINTERFACE"></path>
        </g>
    </g>
</svg>